<?xml version="1.0" encoding="UTF-8"?>
<svg data-bbox="18.022 5 219.954 245.999" height="256" width="256" xmlns:xlink="http://www.w3.org/1999/xlink" xmlns="http://www.w3.org/2000/svg" data-type="ugc">
    <g>
        <defs>
            <linearGradient id="f1c0c71f-beff-40b7-8eed-cbaced769f2b" spreadMethod="pad" gradientTransform="matrix(0 -91.8907 -91.8907 0 85.88 161.434)" gradientUnits="userSpaceOnUse" y2="0" x2="1" y1="0" x1="0">
                <stop offset="0" stop-color="#97d9f6"/>
                <stop offset=".92" stop-color="#0f80cc"/>
                <stop offset="1" stop-color="#0f80cc"/>
            </linearGradient>
            <linearGradient y2="-9.108" x2="-6.741" y1="-9.108" x1="-15.615" spreadMethod="pad" gradientTransform="matrix(0 -9.18907 -9.18907 0 8.588 16.143)" gradientUnits="userSpaceOnUse" id="e68aa19c-7b36-4cf0-97f9-bcc247e10ebd" xlink:href="#f1c0c71f-beff-40b7-8eed-cbaced769f2b"/>
        </defs>
        <path d="M137.925 195.603c-.11-1.4-.176-2.31-.176-2.31s-4.245-28.616-9.298-37.156c-.799-1.353.087-6.912 2.32-15.148 1.302 2.256 6.807 11.9 7.912 15.009 1.245 3.513 1.507 4.52 1.507 4.52s-3.019-15.534-7.973-24.6a329.827 329.827 0 0 1 3.85-12.045c1.878 3.293 6.37 11.264 7.36 14.03.2.568.368 1.05.519 1.493l.145-.797c-1.134-4.813-3.362-13.188-6.412-19.375 6.767-35.223 29.848-82.303 53.51-103.31H36.831c-10.345 0-18.809 8.467-18.809 18.812v170.229c0 10.343 8.464 18.809 18.809 18.809h101.664c-.733-8.875-.977-18.693-.57-28.161" fill="#0f80cc"/>
        <path d="M99.406 99.76c.672-1.162 3.511-6.136 4.081-7.739.642-1.812.777-2.331.777-2.331s-1.557 8.011-4.112 12.686c.56 1.89 1.229 3.979 1.986 6.212.885-1.553 2.896-5.12 3.623-6.81l.082.954c-.644 2.475-1.622 5.715-2.874 8.254 3.214 16.725 13.559 38.625 24.704 50.448H50.96a6.879 6.879 0 0 1-6.87-6.871V73.179c17.373 6.668 38.322 12.763 56.352 12.502-.67 2.581-1.431 4.915-2.232 6.268-.412.698.045 3.565 1.196 7.812" fill="url(#e68aa19c-7b36-4cf0-97f9-bcc247e10ebd)" transform="matrix(1.93905 0 0 -1.93905 -61.983 334.431)"/>
        <path d="M227.193 10.344c-10.571-9.428-23.371-5.64-36.004 5.57a89.284 89.284 0 0 0-5.608 5.488c-21.61 22.926-41.67 65.391-47.902 97.822 2.428 4.923 4.324 11.205 5.573 16.005.32 1.23.609 2.386.84 3.37.548 2.326.843 3.835.843 3.835s-.194-.733-.989-3.038c-.151-.443-.32-.925-.52-1.494a17.306 17.306 0 0 0-.333-.824c-1.41-3.277-5.31-10.193-7.025-13.205a329.827 329.827 0 0 0-3.851 12.046c4.954 9.065 7.973 24.599 7.973 24.599s-.262-1.007-1.507-4.52c-1.105-3.109-6.61-12.753-7.915-15.009-2.23 8.236-3.116 13.795-2.317 15.148 1.551 2.624 3.03 7.15 4.328 12.154 2.932 11.276 4.97 25.002 4.97 25.002s.066.91.176 2.308c-.407 9.47-.163 19.288.57 28.16.972 11.747 2.8 21.838 5.131 27.238l1.582-.862c-3.422-10.64-4.812-24.584-4.203-40.664.92-24.58 6.577-54.222 17.028-85.117 17.657-46.638 42.155-84.058 64.576-101.928-20.435 18.456-48.094 78.196-56.374 100.319-9.27 24.773-15.84 48.02-19.8 70.294 6.832-20.881 28.92-29.857 28.92-29.857s10.833-13.36 23.493-32.448c-7.583 1.73-20.036 4.69-24.207 6.443-6.152 2.581-7.81 3.461-7.81 3.461s19.93-12.136 37.028-17.631c23.515-37.036 49.133-89.65 23.334-112.665" fill="#003b57"/>
    </g>
</svg>
